P3
4 4
255
128 128 128 128 128 128 128 128 128 128 128 128
128 128 128 255 255 255 128 128 128 128 128 128
128 128 128 128 128 128 128 128 128 128 128 128
128 128 128 128 128 128 128 128 128 0 0 0
