P3
4 4
255
0 0 0 0 0 0 0 0 0 170 170 170
0 0 0 127 127 127 0 0 0 0 0 0
0 0 0 0 0 0 127 127 127 0 0 0
170 170 170 0 0 0 0 0 0 0 0 0
