P3
4 4
255
63 0 63 85 0 85 127 0 127 255 0 255
0 63 31 0 85 42 0 0 0 0 0 0
0 63 31 0 85 42 0 127 63 0 0 0
63 0 63 0 0 0 0 0 0 0 0 0
